<mxfile host="app.diagrams.net" modified="2024-05-27T14:34:26.987Z" agent="Mozilla/5.0 (Windows NT 10.0; Win64; x64) AppleWebKit/537.36 (KHTML, like Gecko) Chrome/124.0.0.0 Safari/537.36" version="24.4.9" etag="Zt8J6VzB1SEiUVXwyAVf" type="github">
  <diagram name="Page-1" id="osK4Ct7nIw5nc3SfwIqK">
    <mxGraphModel>
      <root>
        <mxCell id="0" />
        <mxCell id="1" parent="0" />
      </root>
    </mxGraphModel>
  </diagram>
</mxfile>
